<?xml version="1.0" encoding="iso-8859-1"?>
<!-- Uploaded to: SVG Repo, www.svgrepo.com, Generator: SVG Repo Mixer Tools -->
<!DOCTYPE svg PUBLIC "-//W3C//DTD SVG 1.1//EN" "http://www.w3.org/Graphics/SVG/1.1/DTD/svg11.dtd">
<svg fill="#000000" height="800px" width="800px" version="1.1" id="Capa_1" xmlns="http://www.w3.org/2000/svg" xmlns:xlink="http://www.w3.org/1999/xlink" 
	 viewBox="0 0 482.036 482.036" xml:space="preserve">
<g>
	<path d="M459.008,232.204H261.31V70.39c0-22.469-18.279-40.749-40.748-40.749c-22.469,0-40.749,18.335-40.749,40.871v81.899
		c0,10.889-8.859,19.747-19.749,19.747c-10.889,0-19.748-8.858-19.748-19.747v-47.419c0-22.469-18.28-40.749-40.748-40.749
		c-22.469,0-40.749,18.28-40.749,40.749v76.86C25.938,184.54,0,212.139,0,245.699v77.691c0,35.334,28.747,64.08,64.08,64.08h8.037
		c35.334,0,64.08-28.746,64.08-64.08v-77.691c0-32.727-24.665-59.784-56.38-63.602v-77.107c0-10.89,8.859-19.749,19.749-19.749
		c10.889,0,19.748,8.859,19.748,19.749v47.419c0,22.468,18.279,40.747,40.748,40.747c22.469,0,40.749-18.279,40.749-40.747V70.512
		c0-10.957,8.859-19.871,19.749-19.871c10.889,0,19.748,8.859,19.748,19.749v161.814h-59.73c-12.698,0-23.029,10.33-23.029,23.028
		v174.135c0,12.698,10.331,23.028,23.029,23.028h278.428c12.698,0,23.028-10.33,23.028-23.028V255.232
		C482.036,242.534,471.706,232.204,459.008,232.204z M115.198,245.699v77.691c0,23.755-19.326,43.08-43.08,43.08H64.08
		c-23.755,0-43.08-19.325-43.08-43.08v-77.691c0-23.755,19.326-43.081,43.08-43.081h8.037
		C95.872,202.618,115.198,221.944,115.198,245.699z M178.551,289.925h282.485v23.369H178.551V289.925z M180.58,253.204h278.428
		c1.119,0,2.028,0.91,2.028,2.028v13.692H178.551v-13.692C178.551,254.114,179.461,253.204,180.58,253.204z M459.008,431.396H180.58
		c-1.119,0-2.029-0.91-2.029-2.028v-95.073h282.485v95.073C461.036,430.485,460.126,431.396,459.008,431.396z"/>
	<path d="M410.994,352.364c-6.115,0-11.964,1.582-17.102,4.557c-5.138-2.975-10.987-4.557-17.102-4.557
		c-18.887,0-34.253,15.366-34.253,34.253c0,18.887,15.366,34.253,34.253,34.253c6.116,0,11.965-1.582,17.102-4.557
		c5.138,2.975,10.987,4.557,17.102,4.557c18.887,0,34.253-15.366,34.253-34.253C445.247,367.73,429.881,352.364,410.994,352.364z
		 M410.994,399.87c-3.628,0-7.016-1.443-9.541-4.063c-1.979-2.055-4.71-3.215-7.562-3.215s-5.582,1.161-7.561,3.215
		c-2.524,2.62-5.913,4.063-9.541,4.063c-7.308,0-13.253-5.945-13.253-13.253c0-7.308,5.945-13.253,13.253-13.253
		c3.628,0,7.016,1.443,9.541,4.064c1.98,2.054,4.709,3.214,7.561,3.214c0.001,0,0.001,0,0.001,0c2.852,0,5.581-1.16,7.56-3.214
		c2.526-2.621,5.915-4.064,9.542-4.064c7.308,0,13.253,5.945,13.253,13.253C424.247,393.925,418.301,399.87,410.994,399.87z"/>
	<path d="M57.599,222.338v25.074c0,5.799,4.701,10.5,10.5,10.5s10.5-4.701,10.5-10.5v-25.074c0-5.799-4.701-10.5-10.5-10.5
		S57.599,216.539,57.599,222.338z"/>
</g>
</svg>